<?xml version="1.0" encoding="UTF-8" standalone="no"?>
<svg width="18px" height="18px" viewBox="0 0 18 18" version="1.1" xmlns="http://www.w3.org/2000/svg" xmlns:xlink="http://www.w3.org/1999/xlink" xmlns:sketch="http://www.bohemiancoding.com/sketch/ns">
    <!-- Generator: Sketch 3.1.1 (8761) - http://www.bohemiancoding.com/sketch -->
    <title>Artboard 2</title>
    <desc>Created with Sketch.</desc>
    <defs></defs>
    <g id="Page-1" stroke="none" stroke-width="1" fill="none" fill-rule="evenodd" sketch:type="MSPage">
        <g id="Artboard-2" sketch:type="MSArtboardGroup" fill="#7FB2DC" opacity="0.4">
            <g id="Icon-[Search]" sketch:type="MSLayerGroup">
                <path d="M7.33225661,12.4392341 C4.57161315,12.4392341 2.32573164,10.1750684 2.32573164,7.39194998 C2.32573164,4.60883157 4.57161315,2.34466589 7.33225661,2.34466589 C10.0929001,2.34466589 12.3387816,4.60883157 12.3387816,7.39194998 C12.3387816,10.1750684 10.0929001,12.4392341 7.33225661,12.4392341 M17.6592803,15.9992184 L13.3303185,11.6350137 C14.1683571,10.4337632 14.6645132,8.97225479 14.6645132,7.39194998 C14.6645132,3.30988667 11.3829059,0 7.33225661,0 C3.28315783,0 0,3.30988667 0,7.39194998 C0,11.4755764 3.28315783,14.7839 7.33225661,14.7839 C8.97499838,14.7839 10.4851735,14.2329035 11.7077331,13.3137945 L16.014988,17.6568972 C16.2421345,17.8858929 16.5398282,18 16.8375218,18 C17.1352155,18 17.4321339,17.8858929 17.6592803,17.6568972 C18.1135732,17.1989058 18.1135732,16.4572098 17.6592803,15.9992184" id="Fill-1" sketch:type="MSShapeGroup"></path>
            </g>
        </g>
    </g>
</svg>