<?xml version="1.0" encoding="utf-8"?>
<!-- Generator: Adobe Illustrator 15.1.0, SVG Export Plug-In . SVG Version: 6.00 Build 0)  -->
<!DOCTYPE svg PUBLIC "-//W3C//DTD SVG 1.1//EN" "http://www.w3.org/Graphics/SVG/1.1/DTD/svg11.dtd">
<svg version="1.1" id="Layer_1" xmlns="http://www.w3.org/2000/svg" xmlns:xlink="http://www.w3.org/1999/xlink" x="0px" y="0px"
	 width="197.598px" height="72.944px" viewBox="290.715 263.772 197.598 72.944"
	 enable-background="new 290.715 263.772 197.598 72.944" xml:space="preserve">
<g>
	<path fill="#F47735" d="M379.613,275.635c-11.519-7.965-25.002-11.904-38.628-11.862c-13.624-0.042-27.112,3.897-38.628,11.862
		l-1.836,1.271c0.004,0.149,0.006,0.292,0.009,0.441c12.448-6.991,26.394-10.446,40.455-10.392
		c14.062-0.055,28.007,3.4,40.454,10.392c0.004-0.149,0.008-0.292,0.01-0.441L379.613,275.635z"/>
</g>
<path fill="#F47735" d="M351.138,286.121v-1.538c-0.527,0.002-1.653,0.004-2.378-0.016c-0.974-0.022-2.049-0.036-3.221-0.036
	c-1.094,0-3.199,0.036-6.317,0.108c-3.122,0.073-5.283,0.108-6.489,0.108c-1.213,0-3.841-0.065-5.262-0.104
	c-0.576-0.016-0.961-0.026-0.961-0.026s-3.925,0.131-5.031,0.131c-1.221,0-3.153-0.056-5.801-0.169v1.545
	c1.886,0.033,3.038,0.115,3.454,0.254c0.416,0.135,0.716,0.343,0.9,0.625c0.184,0.282,0.292,1.186,0.324,2.711
	c0.079,2.089,0.118,4.227,0.118,6.413v7.421c0,2.105-0.075,3.845-0.228,5.22c-0.153,1.373-0.403,2.453-0.748,3.239
	c-0.346,0.787-0.869,1.498-1.568,2.134c-0.698,0.635-1.748,1.174-3.146,1.613c-1.398,0.441-2.999,0.663-4.8,0.663
	c-1.543,0-2.942-0.164-4.197-0.493c-1.254-0.331-2.25-0.768-2.99-1.314c-0.965-0.721-1.668-1.633-2.11-2.734
	c-0.442-1.1-0.663-3.378-0.663-6.832v-8.915c0.059-4.243,0.1-6.525,0.121-6.847c0.047-1.236,0.176-2.015,0.384-2.337
	c0.144-0.241,0.423-0.431,0.839-0.565c0.417-0.139,1.568-0.221,3.455-0.254v-1.545c-2.251,0.113-4.518,0.169-6.8,0.169
	c-2.252,0-4.688-0.056-7.308-0.169v1.545c1.913,0.033,3.074,0.115,3.484,0.254c0.408,0.135,0.707,0.346,0.893,0.626
	c0.184,0.281,0.301,1.186,0.348,2.71c0.05,2.09,0.074,4.228,0.074,6.413v10.651c0,3.104,0.225,5.31,0.676,6.628
	c0.352,0.995,1.004,1.973,1.951,2.928c0.949,0.957,2.332,1.729,4.15,2.315c1.816,0.586,3.963,0.879,6.439,0.879
	c2.122,0,4.056-0.246,5.802-0.745c1.743-0.499,3.171-1.199,4.279-2.101c1.479-1.203,2.496-2.594,3.051-4.166
	c0.556-1.576,0.833-4.348,0.833-8.317v-8.072c0.048-4.243,0.08-6.524,0.098-6.847c0.047-1.236,0.165-2.015,0.359-2.337
	c0.16-0.241,0.442-0.431,0.852-0.565c0.341-0.114,1.212-0.191,2.596-0.232c0.47,0.015,3.021,0.107,3.396,0.232
	c0.409,0.135,0.707,0.343,0.892,0.625c0.187,0.282,0.302,1.187,0.351,2.711c0.048,2.089,0.072,4.227,0.072,6.413v11.157
	c-0.061,4.227-0.101,6.507-0.121,6.846c-0.049,1.236-0.166,2.016-0.359,2.336c-0.16,0.241-0.447,0.43-0.862,0.567
	c-0.417,0.137-1.567,0.22-3.456,0.253v1.542c3.488-0.111,6.144-0.168,7.959-0.168c2.026,0,4.06,0.057,6.103,0.168v-1.542
	c-1.896-0.033-3.056-0.116-3.474-0.253c-0.418-0.14-0.72-0.353-0.903-0.642c-0.187-0.289-0.294-1.197-0.326-2.726
	c-0.064-2.073-0.096-4.205-0.096-6.392v-4.871c1.205-0.065,2.38-0.098,3.521-0.098c3.232,0,5.309,0.105,6.225,0.314
	c0.481,0.111,0.786,0.28,0.916,0.506c0.079,0.128,0.209,1.069,0.387,2.82l0.168,1.545h1.52l-0.168-5.91l0.168-5.498h-1.52
	l-0.193,1.495c-0.16,1.174-0.309,1.854-0.445,2.039s-0.438,0.316-0.903,0.396c-1.224,0.21-2.854,0.312-4.896,0.312
	c-1.385,0-2.975-0.022-4.774-0.071v-5.344c0.063-3.242,0.104-5.08,0.12-5.514c0.031-0.754,0.096-1.564,0.191-2.432
	c1.736-0.193,3.417-0.289,5.041-0.289c1.623,0,3.051,0.068,4.283,0.203c1.229,0.138,2.261,0.353,3.098,0.641
	c0.258,1.044,0.459,2.54,0.603,4.485h1.521c0.069-2.136,0.354-4.423,0.562-5.886C351.172,286.122,351.156,286.122,351.138,286.121z"
	/>
<path fill="#00539B" d="M385.125,289.277c0.049-1.236,0.175-2.017,0.385-2.337c0.145-0.242,0.421-0.431,0.84-0.567
	c0.416-0.137,1.567-0.22,3.457-0.252v-1.544c-4.215,0.113-6.562,0.168-7.046,0.168c-1.287,0-3.657-0.055-7.116-0.168v1.544
	c1.904,0.032,3.062,0.115,3.468,0.252c0.407,0.138,0.705,0.347,0.889,0.627c0.184,0.281,0.301,1.188,0.35,2.714
	c0.079,2.091,0.119,4.23,0.119,6.418v3.353c-2.09,0.111-4.879,0.169-8.369,0.169c-4.551,0-8.411-0.058-11.579-0.169v-3.353
	c0.062-4.248,0.101-6.53,0.123-6.853c0.045-1.237,0.165-2.018,0.358-2.338c0.159-0.242,0.443-0.431,0.853-0.568
	c0.405-0.137,1.563-0.22,3.467-0.252v-1.544l-6.802,0.168l-7.089-0.162h-0.001c-0.004,0-0.113,0-0.292,0v1.538
	c0.02,0.001,0.034,0.001,0.053,0.001c1.881,0.033,3.027,0.115,3.435,0.251c0.408,0.137,0.707,0.345,0.894,0.626
	c0.184,0.281,0.3,1.187,0.347,2.712c0.051,2.091,0.075,4.227,0.075,6.412v11.158c-0.061,4.228-0.102,6.509-0.122,6.847
	c-0.05,1.237-0.168,2.017-0.361,2.338c-0.158,0.241-0.446,0.429-0.861,0.567c-0.416,0.136-1.567,0.22-3.456,0.253v1.542
	c2.477-0.111,4.971-0.168,7.479-0.168c2.301,0,4.536,0.057,6.705,0.168v-1.542c-1.913-0.033-3.076-0.116-3.484-0.253
	c-0.41-0.137-0.707-0.35-0.895-0.639c-0.185-0.287-0.299-1.193-0.349-2.718c-0.049-2.067-0.073-4.19-0.073-6.37v-5.483
	c3.924-0.112,7.155-0.169,9.697-0.169c2.331,0,5.749,0.057,10.251,0.169v5.483c-0.062,4.215-0.104,6.491-0.118,6.829
	c-0.032,1.233-0.154,2.013-0.363,2.33c-0.16,0.242-0.445,0.431-0.857,0.566c-0.407,0.137-1.57,0.22-3.483,0.253v1.542
	c2.252-0.111,4.43-0.168,6.536-0.168c1.979,0,4.52,0.057,7.625,0.168v-1.542c-1.89-0.033-3.04-0.117-3.456-0.253
	c-0.42-0.14-0.718-0.353-0.901-0.64c-0.184-0.289-0.29-1.199-0.323-2.726c-0.079-2.072-0.121-4.202-0.121-6.388v-11.158
	C385.064,291.88,385.105,289.598,385.125,289.277z"/>
<path fill="#00539B" d="M409.964,315.084l-0.772,1.736c-1.11,0.691-1.923,1.15-2.438,1.381c-0.755,0.336-1.618,0.622-2.592,0.855
	c-0.973,0.233-1.998,0.351-3.075,0.351c-2.122,0-4.046-0.441-5.767-1.325s-3.062-2.207-4.018-3.971
	c-0.957-1.76-1.434-3.821-1.434-6.187c0-1.85,0.254-3.518,0.76-5.005c0.507-1.488,1.08-2.585,1.727-3.292
	c0.465-0.516,1.188-1.105,2.17-1.773c0.981-0.668,1.951-1.195,2.919-1.58c1.271-0.532,2.646-0.797,4.125-0.797
	c1.8,0,3.43,0.409,4.885,1.231c1.454,0.818,2.52,1.938,3.194,3.354c0.677,1.414,1.016,3.015,1.016,4.799
	c0,0.45-0.043,0.998-0.121,1.641c-1.158,0.226-2.191,0.369-3.107,0.435c-1.733,0.129-3.469,0.193-5.201,0.193h-7.731
	c0.031,2.305,0.43,4.171,1.193,5.6c0.764,1.427,1.814,2.479,3.16,3.154c1.343,0.678,2.737,1.014,4.184,1.014
	c0.981,0,1.96-0.157,2.931-0.475c0.974-0.318,2.179-0.902,3.607-1.75L409.964,315.084z M394.502,305.225
	c0.449,0.05,1.303,0.095,2.557,0.145c2.396,0.081,4.045,0.122,4.944,0.122c2.14,0,3.546-0.041,4.223-0.122
	c0.016-0.386,0.023-0.684,0.023-0.892c0-2.541-0.515-4.407-1.543-5.599c-1.031-1.188-2.406-1.783-4.127-1.783
	c-1.817,0-3.28,0.65-4.389,1.953C395.08,300.352,394.518,302.411,394.502,305.225z"/>
<path fill="#00539B" d="M415.014,302.307l-1.278-0.339c0.019-0.368,0.024-0.876,0.024-1.52c0-0.674-0.007-1.213-0.024-1.615
	c2.047-1.336,3.722-2.235,5.026-2.701c0.997-0.34,2.117-0.507,3.357-0.507c1.833,0,3.381,0.344,4.637,1.035
	c1.258,0.693,2.191,1.683,2.803,2.969c0.42,0.898,0.63,2.129,0.63,3.688l-0.122,4.416v7.189c0,0.77,0.062,1.324,0.193,1.663
	c0.097,0.241,0.248,0.418,0.459,0.53c0.159,0.098,0.498,0.16,1.014,0.191l1.567,0.146v1.373c-1.321-0.111-2.479-0.168-3.475-0.168
	c-0.964,0-2.251,0.057-3.86,0.168l0.123-4.244c-3.281,2.477-5.229,3.871-5.84,4.186c-0.611,0.313-1.382,0.472-2.314,0.472
	c-1.947,0-3.462-0.521-4.547-1.558c-1.087-1.035-1.63-2.416-1.63-4.138c0-1.108,0.189-2.121,0.567-3.039
	c0.378-0.917,0.832-1.644,1.363-2.185c0.53-0.536,1.069-0.936,1.615-1.191c0.931-0.436,2.448-0.9,4.547-1.4
	c2.1-0.497,4.179-0.868,6.237-1.108c0.015-1.528-0.17-2.718-0.556-3.57c-0.387-0.852-1.04-1.552-1.952-2.098
	c-0.919-0.548-2.037-0.82-3.355-0.82c-0.949,0-1.78,0.129-2.497,0.386c-0.716,0.256-1.151,0.473-1.314,0.65l-0.436,0.868
	C415.545,301.003,415.223,301.758,415.014,302.307z M426.088,306.092c-2.093,0.354-3.877,0.749-5.355,1.184
	c-1.48,0.436-2.525,0.886-3.136,1.352c-0.372,0.271-0.692,0.684-0.966,1.229c-0.419,0.806-0.627,1.699-0.627,2.679
	c0,1.19,0.329,2.118,0.986,2.786c0.662,0.666,1.579,1.002,2.752,1.002c1.076,0,2.144-0.311,3.197-0.93
	c1.053-0.619,2.102-1.547,3.147-2.787L426.088,306.092L426.088,306.092z"/>
<path fill="#00539B" d="M433.733,318.828v-1.373l2.268-0.025c0.354-0.015,0.623-0.074,0.81-0.179
	c0.185-0.106,0.325-0.239,0.423-0.397c0.177-0.322,0.28-0.894,0.313-1.711c0.014-0.209,0.071-2.518,0.167-6.92V298.22
	c0-2.683-0.039-5.454-0.121-8.316c-0.062-1.928-0.152-3.003-0.266-3.229c-0.083-0.161-0.209-0.272-0.388-0.337
	c-0.244-0.112-1.358-0.17-3.352-0.17v-1.422c3.634-0.45,6.158-1.013,7.576-1.688c0.209-0.099,0.369-0.146,0.479-0.146
	c0.113,0,0.2,0.036,0.269,0.109c0.062,0.071,0.096,0.174,0.096,0.301c0,0.111-0.018,0.272-0.049,0.481l-0.022,0.795
	c-0.083,2.878-0.131,5.327-0.146,7.354l-0.046,3.758v12.513c0.064,4.18,0.104,6.437,0.118,6.773
	c0.018,0.805,0.114,1.391,0.293,1.758c0.062,0.145,0.161,0.271,0.291,0.376c0.129,0.104,0.321,0.188,0.582,0.252
	c0.112,0.017,1.013,0.042,2.694,0.073v1.373c-2.188-0.111-4.109-0.168-5.767-0.168C438.382,318.66,436.306,318.717,433.733,318.828z
	"/>
<path fill="#00539B" d="M446.118,299.918v-1.012c1.549-0.612,2.778-1.16,3.691-1.642c0-3.827,0-6.271,0-7.333
	c1.672-0.579,3.03-1.199,4.077-1.858l0.577,0.483c-0.176,1.334-0.368,4.278-0.577,8.828c1.285,0.015,2.057,0.024,2.314,0.024
	c0.145,0,0.973-0.017,2.481-0.05c0.839-0.013,1.466-0.048,1.885-0.095l0.169,0.168l-0.508,2.243
	c-1.014-0.015-1.946-0.022-2.798-0.022s-2.036,0.008-3.545,0.022l-0.122,9.819c-0.048,2.396-0.03,3.825,0.049,4.293
	c0.08,0.465,0.229,0.873,0.459,1.218c0.223,0.348,0.513,0.624,0.875,0.832c0.359,0.209,0.974,0.371,1.84,0.482
	c0.654,0,1.188-0.028,1.596-0.086c0.41-0.057,0.927-0.195,1.552-0.422l0.29,0.94c-0.756,0.597-1.486,1.214-2.191,1.856
	c-0.611,0.226-1.183,0.377-1.713,0.447c-0.529,0.073-1.14,0.108-1.828,0.108c-0.855,0-1.53-0.097-2.039-0.289
	c-0.504-0.194-0.968-0.462-1.384-0.808c-0.419-0.348-0.768-0.784-1.04-1.316c-0.278-0.53-0.459-1.366-0.539-2.51
	c0.016-1.092,0.049-2.289,0.096-3.594c0.016-0.256,0.024-0.537,0.024-0.844v-10.011h-0.989
	C448.017,299.797,447.113,299.838,446.118,299.918z"/>
<path fill="#00539B" d="M460.454,318.828v-1.373l2.266-0.025c0.354-0.015,0.625-0.074,0.812-0.179
	c0.183-0.106,0.321-0.239,0.422-0.397c0.175-0.323,0.277-0.896,0.312-1.713c0.017-0.211,0.073-2.52,0.168-6.926v-12.472
	c0-2.684-0.039-5.459-0.117-8.321c-0.065-1.929-0.155-3.006-0.271-3.231c-0.081-0.162-0.208-0.275-0.388-0.337
	c-0.242-0.114-1.359-0.169-3.349-0.169v-1.425c3.635-0.451,6.158-1.013,7.573-1.688c0.209-0.098,0.37-0.146,0.482-0.146
	c0.111,0,0.202,0.037,0.266,0.109c0.063,0.071,0.097,0.174,0.097,0.302c0,0.112-0.016,0.273-0.046,0.481l-0.021,0.797
	c-0.071,2.879-0.113,5.33-0.128,7.357l-0.046,3.762v7.043c0.225-0.176,0.859-0.724,1.902-1.639c1.044-0.918,1.661-1.463,1.856-1.642
	c0.303-0.288,0.545-0.481,0.72-0.579c0.306-0.158,0.763-0.321,1.375-0.481c0.835-0.227,1.646-0.339,2.433-0.339
	c1.478,0,2.879,0.351,4.202,1.05c1.324,0.7,2.245,1.581,2.757,2.643c0.517,1.061,0.771,2.63,0.771,4.703v4.245l0.062,3.33
	c0.037,2.072,0.059,3.24,0.059,3.498c0.031,0.771,0.132,1.334,0.29,1.687c0.066,0.162,0.162,0.294,0.293,0.397
	c0.13,0.104,0.325,0.182,0.582,0.229c0.098,0.017,0.938,0.042,2.524,0.073v1.373c-1.832-0.08-3.166-0.118-4.005-0.118
	c-0.704,0-2.161,0.038-4.364,0.118c0.224-2.379,0.338-4.693,0.338-6.946v-5.982c0-1.865-0.137-3.207-0.412-4.028
	c-0.271-0.819-0.829-1.556-1.674-2.206c-0.846-0.651-1.968-0.979-3.367-0.979c-0.883,0-1.673,0.129-2.361,0.384
	c-0.692,0.255-1.328,0.642-1.906,1.155c-0.578,0.515-1.069,1.069-1.474,1.664c-0.191,0.292-0.319,0.641-0.387,1.052
	c-0.062,0.41-0.093,1.233-0.093,2.474v2.822c0.063,4.166,0.104,6.42,0.119,6.758c0.032,0.804,0.129,1.391,0.29,1.76
	c0.063,0.162,0.162,0.294,0.294,0.398c0.126,0.104,0.321,0.181,0.581,0.229c0.111,0.016,1.012,0.042,2.691,0.073v1.373
	c-2.86-0.111-4.838-0.168-5.932-0.168C465.704,318.66,463.637,318.717,460.454,318.828z"/>
<path fill="#00539B" d="M297.568,329.053v4.401c0,1.332,0.512,2.001,1.389,2.001c0.908,0,1.409-0.637,1.409-2.001v-4.401h1.729
	v4.299c0,2.365-1.195,3.492-3.196,3.492c-1.932,0-3.057-1.08-3.057-3.514v-4.277H297.568z"/>
<path fill="#00539B" d="M304.268,336.717v-7.664h2.024l1.591,2.812c0.455,0.808,0.898,1.764,1.251,2.626h0.022
	c-0.103-1.012-0.138-2.047-0.138-3.207v-2.229h1.593v7.663h-1.819l-1.637-2.956c-0.454-0.818-0.966-1.807-1.329-2.705h-0.047
	c0.058,1.024,0.08,2.104,0.08,3.354v2.307L304.268,336.717L304.268,336.717z"/>
<path fill="#00539B" d="M315.094,329.053v7.664h-1.723v-7.664H315.094z"/>
<path fill="#00539B" d="M319.637,336.717l-2.449-7.664h1.896l0.93,3.244c0.261,0.919,0.498,1.783,0.68,2.738h0.033
	c0.194-0.92,0.433-1.832,0.693-2.705l0.973-3.277h1.838l-2.573,7.664H319.637z"/>
<path fill="#00539B" d="M330.143,333.479h-2.81v1.818h3.138v1.42h-4.86v-7.664h4.703v1.422h-2.979v1.594h2.81L330.143,333.479
	L330.143,333.479z"/>
<path fill="#00539B" d="M332.895,329.211c0.556-0.09,1.37-0.158,2.302-0.158c1.134,0,1.929,0.172,2.471,0.604
	c0.467,0.362,0.716,0.911,0.716,1.612c0,0.97-0.69,1.642-1.349,1.879v0.033c0.531,0.217,0.828,0.715,1.02,1.422
	c0.238,0.875,0.465,1.875,0.613,2.17h-1.771c-0.111-0.227-0.305-0.84-0.521-1.782c-0.218-0.968-0.546-1.218-1.259-1.228h-0.511v3.01
	h-1.713L332.895,329.211L332.895,329.211z M334.606,332.51h0.681c0.861,0,1.37-0.43,1.37-1.102c0-0.692-0.477-1.059-1.27-1.059
	c-0.42,0-0.655,0.024-0.782,0.057L334.606,332.51L334.606,332.51z"/>
<path fill="#00539B" d="M340.4,335.049c0.452,0.236,1.18,0.477,1.915,0.477c0.793,0,1.213-0.327,1.213-0.83
	c0-0.478-0.363-0.754-1.28-1.069c-1.27-0.453-2.109-1.158-2.109-2.272c0-1.309,1.101-2.299,2.892-2.299
	c0.873,0,1.496,0.172,1.951,0.391l-0.388,1.385c-0.293-0.148-0.85-0.365-1.586-0.365c-0.749,0-1.113,0.355-1.113,0.74
	c0,0.49,0.422,0.704,1.418,1.08c1.351,0.501,1.974,1.208,1.974,2.285c0,1.285-0.976,2.377-3.072,2.377
	c-0.872,0-1.733-0.237-2.164-0.478L340.4,335.049z"/>
<path fill="#00539B" d="M348.753,329.053v7.664h-1.724v-7.664H348.753z"/>
<path fill="#00539B" d="M352.436,330.512h-2.062v-1.459h5.871v1.459h-2.085v6.205h-1.724V330.512L352.436,330.512z"/>
<path fill="#00539B" d="M359.68,336.717v-3.137l-2.413-4.527h1.983l0.771,1.844c0.236,0.558,0.407,0.968,0.588,1.468h0.022
	c0.172-0.479,0.354-0.921,0.58-1.468l0.771-1.844h1.938l-2.517,4.471v3.193H359.68z"/>
<path fill="#00539B" d="M374.454,332.943c0,2.524-1.508,4.035-3.751,4.035c-2.257,0-3.597-1.715-3.597-3.91
	c0-2.299,1.476-4.017,3.72-4.017C373.173,329.053,374.454,330.816,374.454,332.943z M368.934,333.033c0,1.514,0.703,2.57,1.859,2.57
	c1.168,0,1.836-1.114,1.836-2.604c0-1.387-0.646-2.568-1.836-2.568C369.612,330.432,368.934,331.545,368.934,333.033z"/>
<path fill="#00539B" d="M376.324,329.053h4.658v1.422h-2.937v1.754h2.743v1.408h-2.743v3.08h-1.723L376.324,329.053L376.324,329.053
	z"/>
<path fill="#00539B" d="M387.076,329.053h4.662v1.422h-2.939v1.754h2.744v1.408h-2.744v3.08h-1.723V329.053z"/>
<path fill="#00539B" d="M393.721,329.053h1.725v6.211h3.038v1.453h-4.763V329.053z"/>
<path fill="#00539B" d="M406.738,332.941c0,2.524-1.508,4.037-3.754,4.037c-2.254,0-3.593-1.717-3.593-3.914
	c0-2.295,1.472-4.013,3.72-4.013C405.457,329.053,406.738,330.816,406.738,332.941z M401.217,333.033
	c0,1.512,0.703,2.568,1.859,2.568c1.166,0,1.836-1.115,1.836-2.603c0-1.388-0.646-2.571-1.836-2.571
	C401.896,330.43,401.217,331.543,401.217,333.033z"/>
<path fill="#00539B" d="M408.771,329.211c0.555-0.09,1.367-0.158,2.301-0.158c1.133,0,1.927,0.172,2.473,0.604
	c0.464,0.362,0.71,0.911,0.71,1.612c0,0.97-0.688,1.642-1.349,1.879v0.033c0.535,0.217,0.83,0.715,1.021,1.422
	c0.24,0.875,0.465,1.875,0.611,2.17h-1.767c-0.114-0.227-0.307-0.84-0.521-1.782c-0.216-0.968-0.544-1.218-1.258-1.228h-0.512v3.01
	h-1.711v-7.562H408.771z M410.481,332.51h0.683c0.859,0,1.371-0.43,1.371-1.102c0-0.692-0.478-1.059-1.271-1.059
	c-0.424,0-0.658,0.024-0.783,0.057V332.51L410.481,332.51z"/>
<path fill="#00539B" d="M418.467,329.053v7.664h-1.72v-7.664H418.467z"/>
<path fill="#00539B" d="M421.211,329.225c0.635-0.104,1.462-0.172,2.324-0.172c1.463,0,2.416,0.273,3.141,0.82
	c0.792,0.59,1.295,1.535,1.295,2.889c0,1.467-0.532,2.479-1.258,3.104c-0.807,0.67-2.045,0.987-3.539,0.987
	c-0.896,0-1.543-0.056-1.963-0.112V329.225z M422.936,335.469c0.146,0.033,0.396,0.033,0.601,0.033
	c1.577,0.012,2.608-0.854,2.608-2.686c0-1.592-0.932-2.432-2.425-2.432c-0.376,0-0.638,0.033-0.784,0.067V335.469L422.936,335.469z"
	/>
<path fill="#00539B" d="M431.427,334.75l-0.546,1.967h-1.779l2.325-7.664h2.268l2.382,7.664h-1.873l-0.589-1.967H431.427z
	 M433.365,333.455l-0.478-1.627c-0.139-0.453-0.271-1.021-0.387-1.479h-0.021c-0.113,0.455-0.228,1.034-0.354,1.479l-0.45,1.627
	H433.365z"/>
<path fill="#00539B" d="M443.596,329.053v2.945h2.847v-2.945h1.721v7.664h-1.721v-3.205h-2.847v3.205h-1.725v-7.664H443.596z"/>
<path fill="#00539B" d="M455.112,333.479H452.3v1.818h3.143v1.42h-4.863v-7.664h4.702v1.422h-2.98v1.594h2.812L455.112,333.479
	L455.112,333.479z"/>
<path fill="#00539B" d="M459.645,334.75l-0.545,1.967h-1.777l2.322-7.664h2.269l2.379,7.664h-1.869l-0.588-1.967H459.645z
	 M461.585,333.454l-0.479-1.627c-0.137-0.453-0.271-1.022-0.386-1.478h-0.021c-0.111,0.455-0.227,1.033-0.353,1.478l-0.454,1.627
	H461.585z"/>
<path fill="#00539B" d="M465.865,329.053h1.721v6.211h3.038v1.453h-4.759V329.053z"/>
<path fill="#00539B" d="M472.624,330.512h-2.064v-1.459h5.878v1.459h-2.091v6.205h-1.723V330.512z"/>
<path fill="#00539B" d="M479.756,329.053v2.945h2.846v-2.945h1.724v7.664h-1.724v-3.205h-2.846v3.205h-1.721v-7.664H479.756z"/>
</svg>
